<svg xmlns="http://www.w3.org/2000/svg" version="1.1" xmlns:xlink="http://www.w3.org/1999/xlink" xmlns:svgjs="http://svgjs.com/svgjs" width="512" height="512" x="0" y="0" viewBox="0 0 512 512" style="enable-background:new 0 0 512 512" xml:space="preserve" class=""><g><path id="Wave" d="m35.255 143.998c-.022-2.499 1.537-4.998 4.745-4.998 19.901 0 30.219 9.172 39.322 17.264 8.896 7.907 16.578 14.736 32.674 14.736 16.093 0 23.773-6.829 32.666-14.737 9.1-8.091 19.414-17.263 39.307-17.263 19.901 0 30.219 9.171 39.322 17.263 8.896 7.908 16.579 14.737 32.678 14.737s23.781-6.829 32.678-14.736c9.104-8.093 19.423-17.264 39.326-17.264 19.904 0 30.225 9.171 39.329 17.263 8.898 7.907 16.583 14.737 32.687 14.737 16.101 0 23.785-6.829 32.682-14.737 9.105-8.091 19.424-17.263 39.328-17.263 6.414 0 6.523 10 .002 10-16.104 0-23.788 6.83-32.687 14.738-9.105 8.091-19.423 17.262-39.325 17.262-19.904 0-30.225-9.171-39.329-17.263-8.899-7.907-16.584-14.737-32.687-14.737-16.102 0-23.785 6.83-32.683 14.738-9.103 8.091-19.421 17.262-39.321 17.262-19.901 0-30.219-9.171-39.322-17.263-8.896-7.908-16.579-14.737-32.678-14.737-16.09 0-23.77 6.829-32.662 14.736-9.1 8.092-19.415 17.264-39.311 17.264-19.898 0-30.215-9.171-39.318-17.262-8.895-7.908-16.577-14.737-32.673-14.738-3.122 0-4.728-2.501-4.75-5.002zm436.745 187.002c-19.905 0-30.225 9.172-39.33 17.264-8.896 7.907-16.581 14.736-32.681 14.736-16.104 0-23.788-6.829-32.687-14.737-9.104-8.092-19.425-17.263-39.329-17.263-19.903 0-30.222 9.172-39.326 17.264-8.897 7.907-16.579 14.736-32.678 14.736s-23.782-6.829-32.678-14.737c-9.103-8.092-19.421-17.263-39.322-17.263-19.893 0-30.207 9.171-39.307 17.263-8.893 7.908-16.572 14.737-32.666 14.737-16.097 0-23.779-6.829-32.674-14.736-9.103-8.092-19.42-17.263-39.319-17.264-6.412 0-6.504 10-.003 10 16.1 0 23.782 6.83 32.678 14.737 9.103 8.092 19.42 17.263 39.318 17.263 19.896 0 30.211-9.172 39.311-17.265 8.892-7.906 16.571-14.735 32.662-14.735 16.099 0 23.782 6.829 32.678 14.737 9.103 8.092 19.421 17.263 39.322 17.263 19.9 0 30.218-9.171 39.321-17.262 8.898-7.908 16.581-14.738 32.683-14.738 16.104 0 23.788 6.829 32.687 14.737 9.104 8.092 19.425 17.263 39.329 17.263 19.902 0 30.221-9.171 39.325-17.262 8.897-7.908 16.582-14.737 32.684-14.738 6.348 0 6.577-10 .002-10zm0-96c-19.905 0-30.225 9.171-39.33 17.263-8.896 7.908-16.581 14.737-32.681 14.737-16.104 0-23.788-6.829-32.687-14.737-9.104-8.092-19.425-17.263-39.329-17.263-19.903 0-30.222 9.171-39.326 17.264-8.897 7.907-16.579 14.736-32.678 14.736s-23.782-6.829-32.678-14.737c-9.103-8.092-19.421-17.263-39.322-17.263-19.893 0-30.207 9.171-39.307 17.263-8.893 7.908-16.572 14.737-32.666 14.737-16.097 0-23.779-6.829-32.674-14.736-9.102-8.092-19.42-17.264-39.32-17.264-6.389 0-6.545 10-.002 10 16.1 0 23.782 6.83 32.678 14.737 9.103 8.092 19.42 17.263 39.318 17.263 19.896 0 30.211-9.172 39.311-17.265 8.892-7.907 16.571-14.735 32.662-14.735 16.099 0 23.782 6.829 32.678 14.737 9.103 8.092 19.421 17.263 39.322 17.263 19.9 0 30.218-9.171 39.321-17.262 8.898-7.908 16.581-14.738 32.683-14.738 16.104 0 23.788 6.83 32.687 14.737 9.104 8.092 19.425 17.263 39.329 17.263 19.902 0 30.221-9.171 39.325-17.262 8.897-7.908 16.582-14.737 32.685-14.738 6.411 0 6.507-10 .001-10z" fill="#000000" data-original="#000000"></path></g></svg> 
